<svg id="Layer_1" enable-background="new 0 0 128 128" height="512" viewBox="0 0 128 128" width="512" xmlns="http://www.w3.org/2000/svg"><path d="m115.3 21.7v58.3c.1 2.1-1.5 4-3.6 4.1h-95.4c-2.1-.2-3.7-2-3.6-4.1v-58.3c-.1-2.1 1.5-4 3.6-4.1h95.4c2.1.2 3.7 2 3.6 4.1z" fill="#839afe"/><path d="m115.3 21.7v49.5h-102.6v-49.5c-.1-2.1 1.5-4 3.6-4.1h95.4c2.1.2 3.7 2 3.6 4.1z" fill="#436afd"/><path d="m77.1 102h-28l3.9-17.9h20.1z" fill="#436afd"/><path d="m40 102h47v5.4h-47z" fill="#839afe"/><path d="m21.1 25.8h85.7v15.5h-85.7z" fill="#98fcd2"/><path d="m21.1 41.3h85.7v30h-85.7z" fill="#b7c5ff"/><path d="m32.1 33.8c0 1.4-1.1 2.5-2.5 2.5s-2.5-1.1-2.5-2.5 1.1-2.5 2.5-2.5c1.4 0 2.5 1.1 2.5 2.5z" fill="#436afd"/><path d="m41.6 33.8c0 1.4-1.1 2.5-2.5 2.5s-2.5-1.1-2.5-2.5 1.1-2.5 2.5-2.5c1.4 0 2.5 1.1 2.5 2.5z" fill="#fff"/><path d="m51.1 33.8c0 1.4-1.1 2.5-2.5 2.5s-2.5-1.1-2.5-2.5 1.1-2.5 2.5-2.5 2.5 1.1 2.5 2.5z" fill="#ff2e8e"/><g fill="#839afe"><path d="m102.2 53.1h-72.6c-1 0-1.8-.8-1.8-1.8s.8-1.8 1.8-1.8h72.6c1 0 1.8.8 1.8 1.8s-.9 1.8-1.8 1.8z"/><path d="m80 63.2h-50.4c-1 0-1.8-.8-1.8-1.8s.8-1.8 1.8-1.8h50.4c1 0 1.8.8 1.8 1.8s-.8 1.8-1.8 1.8z"/></g></svg>